<svg xmlns="http://www.w3.org/2000/svg" xmlns:xlink="http://www.w3.org/1999/xlink" width="940" zoomAndPan="magnify" viewBox="0 0 705 449.999984" height="600" preserveAspectRatio="xMidYMid meet" version="1.0"><defs><g/><clipPath id="546742457c"><path d="M 9.394531 119.253906 L 165 119.253906 L 165 286.03125 L 9.394531 286.03125 Z M 9.394531 119.253906 " clip-rule="nonzero"/></clipPath><clipPath id="ce5e8e2f58"><path d="M 150.445312 109.03125 L 290.265625 109.03125 L 290.265625 202.726562 L 150.445312 202.726562 Z M 150.445312 109.03125 " clip-rule="nonzero"/></clipPath><clipPath id="829348b667"><path d="M 165.179688 197.6875 L 238.375 197.6875 L 238.375 225.519531 L 165.179688 225.519531 Z M 165.179688 197.6875 " clip-rule="nonzero"/></clipPath><clipPath id="e35084cdc8"><path d="M 134.878906 233.605469 L 211.226562 233.605469 L 211.226562 286.1875 L 134.878906 286.1875 Z M 134.878906 233.605469 " clip-rule="nonzero"/></clipPath><clipPath id="04e3e73eb2"><rect x="0" width="213" y="0" height="80"/></clipPath><clipPath id="711372f2f2"><rect x="0" width="388" y="0" height="81"/></clipPath><clipPath id="c9d474011f"><rect x="0" width="143" y="0" height="80"/></clipPath></defs><g clip-path="url(#546742457c)"><path fill="#002147" d="M 107.371094 119.53125 L 23.667969 119.53125 L 9.394531 176.933594 L 93.097656 176.933594 L 65.894531 286.335938 L 123.296875 286.335938 L 164.773438 119.53125 L 107.371094 119.53125 " fill-opacity="1" fill-rule="nonzero"/></g><g clip-path="url(#ce5e8e2f58)"><path fill="#535c5a" d="M 174.070312 109.03125 L 150.78125 202.683594 L 171.15625 166.433594 L 276.167969 166.433594 L 290.265625 109.03125 L 174.070312 109.03125 " fill-opacity="1" fill-rule="nonzero"/></g><g clip-path="url(#829348b667)"><path fill="#bb133e" d="M 238.550781 208.289062 C 238.550781 217.769531 230.867188 225.449219 221.390625 225.449219 L 165.683594 225.449219 C 165.367188 224.152344 165.203125 222.796875 165.203125 221.402344 C 165.203125 211.921875 172.882812 204.242188 182.359375 204.242188 L 221.390625 204.242188 C 226.863281 204.242188 231.738281 201.679688 234.878906 197.6875 C 236.378906 199.585938 237.484375 201.8125 238.070312 204.242188 C 238.386719 205.539062 238.550781 206.894531 238.550781 208.289062 " fill-opacity="1" fill-rule="nonzero"/></g><g clip-path="url(#e35084cdc8)"><path fill="#bb133e" d="M 211.210938 244.277344 C 211.210938 250.890625 207.46875 256.632812 201.980469 259.492188 C 199.609375 260.734375 196.910156 261.433594 194.050781 261.433594 L 170.394531 261.433594 C 154.476562 261.433594 141 271.90625 136.492188 286.339844 C 135.445312 282.992188 134.878906 279.429688 134.878906 275.734375 C 134.878906 270.648438 135.949219 265.808594 137.878906 261.433594 C 143.382812 248.945312 155.867188 240.222656 170.394531 240.222656 L 194.050781 240.222656 C 199.523438 240.222656 204.398438 237.660156 207.539062 233.671875 C 209.039062 235.570312 210.140625 237.796875 210.726562 240.222656 C 211.042969 241.523438 211.210938 242.878906 211.210938 244.277344 " fill-opacity="1" fill-rule="nonzero"/></g><g transform="matrix(1, 0, 0, 1, 302, 107)"><g clip-path="url(#04e3e73eb2)"><g fill="#002147" fill-opacity="1"><g transform="translate(0.780849, 56.97721)"><g><path d="M 0.515625 -42.1875 L 0.515625 -52.734375 L 37.59375 -52.734375 L 37.59375 -42.1875 L 25.0625 -42.1875 L 25.0625 0 L 13.046875 0 L 13.046875 -42.1875 Z M 0.515625 -42.1875 "/></g></g></g><g fill="#002147" fill-opacity="1"><g transform="translate(36.826157, 56.97721)"><g><path d="M 1.46875 -26.40625 C 1.46875 -34.03125 4.066406 -40.484375 9.265625 -45.765625 C 14.460938 -51.046875 20.726562 -53.6875 28.0625 -53.6875 C 35.4375 -53.6875 41.703125 -51.054688 46.859375 -45.796875 C 52.015625 -40.535156 54.59375 -34.070312 54.59375 -26.40625 C 54.59375 -18.6875 52.054688 -12.195312 46.984375 -6.9375 C 41.910156 -1.675781 35.601562 0.953125 28.0625 0.953125 C 20.34375 0.953125 13.976562 -1.65625 8.96875 -6.875 C 3.96875 -12.09375 1.46875 -18.601562 1.46875 -26.40625 Z M 14.453125 -26.40625 C 14.453125 -23.632812 14.875 -21.109375 15.71875 -18.828125 C 16.570312 -16.546875 18.0625 -14.613281 20.1875 -13.03125 C 22.320312 -11.457031 24.945312 -10.671875 28.0625 -10.671875 C 32.539062 -10.671875 35.914062 -12.203125 38.1875 -15.265625 C 40.46875 -18.335938 41.609375 -22.050781 41.609375 -26.40625 C 41.609375 -30.707031 40.445312 -34.398438 38.125 -37.484375 C 35.800781 -40.578125 32.445312 -42.125 28.0625 -42.125 C 23.71875 -42.125 20.363281 -40.578125 18 -37.484375 C 15.632812 -34.398438 14.453125 -30.707031 14.453125 -26.40625 Z M 14.453125 -26.40625 "/></g></g></g><g fill="#002147" fill-opacity="1"><g transform="translate(90.830271, 56.97721)"><g><path d="M 0.515625 -42.1875 L 0.515625 -52.734375 L 37.59375 -52.734375 L 37.59375 -42.1875 L 25.0625 -42.1875 L 25.0625 0 L 13.046875 0 L 13.046875 -42.1875 Z M 0.515625 -42.1875 "/></g></g></g><g fill="#002147" fill-opacity="1"><g transform="translate(125.85295, 56.97721)"><g><path d="M 30.625 -52.734375 L 51.90625 0 L 39 0 L 35.09375 -10.546875 L 15.015625 -10.546875 L 11.125 0 L -1.796875 0 L 19.5 -52.734375 Z M 31 -21.09375 L 25.125 -36.4375 L 25 -36.4375 L 19.109375 -21.09375 Z M 31 -21.09375 "/></g></g></g><g fill="#002147" fill-opacity="1"><g transform="translate(175.958656, 56.97721)"><g><path d="M 15.859375 -52.734375 L 15.859375 -10.546875 L 34 -10.546875 L 34 0 L 3.828125 0 L 3.828125 -52.734375 Z M 15.859375 -52.734375 "/></g></g></g></g></g><g transform="matrix(1, 0, 0, 1, 303, 170)"><g clip-path="url(#711372f2f2)"><g fill="#bb133e" fill-opacity="1"><g transform="translate(0.470028, 57.215396)"><g><path d="M 34.328125 -52.734375 L 34.328125 -42.1875 L 15.859375 -42.1875 L 15.859375 -31.703125 L 32.921875 -31.703125 L 32.921875 -21.15625 L 15.859375 -21.15625 L 15.859375 0 L 3.828125 0 L 3.828125 -52.734375 Z M 34.328125 -52.734375 "/></g></g></g><g fill="#bb133e" fill-opacity="1"><g transform="translate(36.713342, 57.215396)"><g><path d="M 15.859375 -52.734375 L 15.859375 0 L 3.828125 0 L 3.828125 -52.734375 Z M 15.859375 -52.734375 "/></g></g></g><g fill="#bb133e" fill-opacity="1"><g transform="translate(56.401063, 57.215396)"><g><path d="M 15.859375 -52.734375 L 15.859375 -10.546875 L 34 -10.546875 L 34 0 L 3.828125 0 L 3.828125 -52.734375 Z M 15.859375 -52.734375 "/></g></g></g><g fill="#bb133e" fill-opacity="1"><g transform="translate(89.192636, 57.215396)"><g><path d="M 0.515625 -42.1875 L 0.515625 -52.734375 L 37.59375 -52.734375 L 37.59375 -42.1875 L 25.0625 -42.1875 L 25.0625 0 L 13.046875 0 L 13.046875 -42.1875 Z M 0.515625 -42.1875 "/></g></g></g><g fill="#bb133e" fill-opacity="1"><g transform="translate(127.289657, 57.215396)"><g><path d="M 3.828125 -52.734375 L 22.6875 -52.734375 C 27.757812 -52.734375 31.894531 -51.378906 35.09375 -48.671875 C 38.289062 -45.972656 39.890625 -42.109375 39.890625 -37.078125 C 39.890625 -33.203125 38.921875 -29.953125 36.984375 -27.328125 C 35.046875 -24.703125 32.410156 -22.859375 29.078125 -21.796875 L 47.234375 0 L 31.96875 0 L 15.859375 -20.84375 L 15.859375 0 L 3.828125 0 Z M 15.859375 -29.34375 L 17.265625 -29.34375 C 18.367188 -29.34375 19.300781 -29.363281 20.0625 -29.40625 C 20.832031 -29.445312 21.707031 -29.59375 22.6875 -29.84375 C 23.664062 -30.101562 24.453125 -30.46875 25.046875 -30.9375 C 25.648438 -31.40625 26.164062 -32.085938 26.59375 -32.984375 C 27.019531 -33.878906 27.234375 -34.960938 27.234375 -36.234375 C 27.234375 -37.515625 27.019531 -38.601562 26.59375 -39.5 C 26.164062 -40.394531 25.648438 -41.078125 25.046875 -41.546875 C 24.453125 -42.015625 23.664062 -42.375 22.6875 -42.625 C 21.707031 -42.882812 20.832031 -43.035156 20.0625 -43.078125 C 19.300781 -43.117188 18.367188 -43.140625 17.265625 -43.140625 L 15.859375 -43.140625 Z M 15.859375 -29.34375 "/></g></g></g><g fill="#bb133e" fill-opacity="1"><g transform="translate(173.057229, 57.215396)"><g><path d="M 30.625 -52.734375 L 51.90625 0 L 39 0 L 35.09375 -10.546875 L 15.015625 -10.546875 L 11.125 0 L -1.796875 0 L 19.5 -52.734375 Z M 31 -21.09375 L 25.125 -36.4375 L 25 -36.4375 L 19.109375 -21.09375 Z M 31 -21.09375 "/></g></g></g><g fill="#bb133e" fill-opacity="1"><g transform="translate(220.103232, 57.215396)"><g><path d="M 0.515625 -42.1875 L 0.515625 -52.734375 L 37.59375 -52.734375 L 37.59375 -42.1875 L 25.0625 -42.1875 L 25.0625 0 L 13.046875 0 L 13.046875 -42.1875 Z M 0.515625 -42.1875 "/></g></g></g><g fill="#bb133e" fill-opacity="1"><g transform="translate(258.200264, 57.215396)"><g><path d="M 15.859375 -52.734375 L 15.859375 0 L 3.828125 0 L 3.828125 -52.734375 Z M 15.859375 -52.734375 "/></g></g></g><g fill="#bb133e" fill-opacity="1"><g transform="translate(277.887985, 57.215396)"><g><path d="M 1.46875 -26.40625 C 1.46875 -34.03125 4.066406 -40.484375 9.265625 -45.765625 C 14.460938 -51.046875 20.726562 -53.6875 28.0625 -53.6875 C 35.4375 -53.6875 41.703125 -51.054688 46.859375 -45.796875 C 52.015625 -40.535156 54.59375 -34.070312 54.59375 -26.40625 C 54.59375 -18.6875 52.054688 -12.195312 46.984375 -6.9375 C 41.910156 -1.675781 35.601562 0.953125 28.0625 0.953125 C 20.34375 0.953125 13.976562 -1.65625 8.96875 -6.875 C 3.96875 -12.09375 1.46875 -18.601562 1.46875 -26.40625 Z M 14.453125 -26.40625 C 14.453125 -23.632812 14.875 -21.109375 15.71875 -18.828125 C 16.570312 -16.546875 18.0625 -14.613281 20.1875 -13.03125 C 22.320312 -11.457031 24.945312 -10.671875 28.0625 -10.671875 C 32.539062 -10.671875 35.914062 -12.203125 38.1875 -15.265625 C 40.46875 -18.335938 41.609375 -22.050781 41.609375 -26.40625 C 41.609375 -30.707031 40.445312 -34.398438 38.125 -37.484375 C 35.800781 -40.578125 32.445312 -42.125 28.0625 -42.125 C 23.71875 -42.125 20.363281 -40.578125 18 -37.484375 C 15.632812 -34.398438 14.453125 -30.707031 14.453125 -26.40625 Z M 14.453125 -26.40625 "/></g></g></g><g fill="#bb133e" fill-opacity="1"><g transform="translate(333.946853, 57.215396)"><g><path d="M 15.859375 -32.734375 L 15.859375 0 L 3.828125 0 L 3.828125 -52.734375 L 15.859375 -52.734375 L 36.8125 -20 L 36.953125 -20 L 36.953125 -52.734375 L 48.96875 -52.734375 L 48.96875 0 L 36.953125 0 L 15.984375 -32.734375 Z M 15.859375 -32.734375 "/></g></g></g></g></g><g transform="matrix(1, 0, 0, 1, 303, 232)"><g clip-path="url(#c9d474011f)"><g fill="#535c5a" fill-opacity="1"><g transform="translate(0.470028, 57.129517)"><g><path d="M 44.359375 -52.734375 L 44.359375 -18.734375 C 44.359375 -12.253906 42.609375 -7.351562 39.109375 -4.03125 C 35.617188 -0.707031 30.503906 0.953125 23.765625 0.953125 C 17.035156 0.953125 11.925781 -0.707031 8.4375 -4.03125 C 4.945312 -7.351562 3.203125 -12.253906 3.203125 -18.734375 L 3.203125 -52.734375 L 15.21875 -52.734375 L 15.21875 -22.25 C 15.21875 -17.988281 15.882812 -15.023438 17.21875 -13.359375 C 18.5625 -11.691406 20.742188 -10.859375 23.765625 -10.859375 C 26.796875 -10.859375 28.984375 -11.691406 30.328125 -13.359375 C 31.671875 -15.023438 32.34375 -17.988281 32.34375 -22.25 L 32.34375 -52.734375 Z M 44.359375 -52.734375 "/></g></g></g><g fill="#535c5a" fill-opacity="1"><g transform="translate(46.741043, 57.129517)"><g><path d="M 23.265625 -53.6875 C 26.117188 -53.6875 28.910156 -53.269531 31.640625 -52.4375 C 34.367188 -51.613281 36.394531 -50.796875 37.71875 -49.984375 L 39.625 -48.703125 L 34.78125 -39.125 C 34.394531 -39.375 33.859375 -39.703125 33.171875 -40.109375 C 32.492188 -40.515625 31.21875 -41.054688 29.34375 -41.734375 C 27.46875 -42.421875 25.71875 -42.765625 24.09375 -42.765625 C 22.09375 -42.765625 20.546875 -42.335938 19.453125 -41.484375 C 18.367188 -40.628906 17.828125 -39.476562 17.828125 -38.03125 C 17.828125 -37.3125 18.082031 -36.640625 18.59375 -36.015625 C 19.113281 -35.398438 19.988281 -34.738281 21.21875 -34.03125 C 22.457031 -33.332031 23.546875 -32.769531 24.484375 -32.34375 C 25.421875 -31.914062 26.867188 -31.273438 28.828125 -30.421875 C 32.234375 -28.972656 35.140625 -27.003906 37.546875 -24.515625 C 39.960938 -22.023438 41.171875 -19.203125 41.171875 -16.046875 C 41.171875 -13.015625 40.625 -10.367188 39.53125 -8.109375 C 38.445312 -5.859375 36.957031 -4.09375 35.0625 -2.8125 C 33.164062 -1.53125 31.066406 -0.582031 28.765625 0.03125 C 26.460938 0.644531 23.96875 0.953125 21.28125 0.953125 C 18.976562 0.953125 16.71875 0.71875 14.5 0.25 C 12.289062 -0.21875 10.441406 -0.800781 8.953125 -1.5 C 7.460938 -2.207031 6.117188 -2.898438 4.921875 -3.578125 C 3.722656 -4.265625 2.847656 -4.84375 2.296875 -5.3125 L 1.46875 -6.015625 L 7.484375 -16.109375 C 7.992188 -15.679688 8.695312 -15.132812 9.59375 -14.46875 C 10.488281 -13.8125 12.070312 -12.925781 14.34375 -11.8125 C 16.625 -10.707031 18.640625 -10.15625 20.390625 -10.15625 C 25.460938 -10.15625 28 -11.882812 28 -15.34375 C 28 -16.0625 27.816406 -16.726562 27.453125 -17.34375 C 27.085938 -17.96875 26.445312 -18.585938 25.53125 -19.203125 C 24.613281 -19.828125 23.800781 -20.316406 23.09375 -20.671875 C 22.394531 -21.035156 21.25 -21.585938 19.65625 -22.328125 C 18.0625 -23.078125 16.878906 -23.644531 16.109375 -24.03125 C 12.910156 -25.613281 10.4375 -27.585938 8.6875 -29.953125 C 6.945312 -32.316406 6.078125 -34.863281 6.078125 -37.59375 C 6.078125 -42.320312 7.820312 -46.1875 11.3125 -49.1875 C 14.8125 -52.1875 18.796875 -53.6875 23.265625 -53.6875 Z M 23.265625 -53.6875 "/></g></g></g><g fill="#535c5a" fill-opacity="1"><g transform="translate(89.688791, 57.129517)"><g><path d="M 30.625 -52.734375 L 51.90625 0 L 39 0 L 35.09375 -10.546875 L 15.015625 -10.546875 L 11.125 0 L -1.796875 0 L 19.5 -52.734375 Z M 31 -21.09375 L 25.125 -36.4375 L 25 -36.4375 L 19.109375 -21.09375 Z M 31 -21.09375 "/></g></g></g></g></g></svg>